<svg width="60" height="60" viewBox="0 0 60 60" fill="none" xmlns="http://www.w3.org/2000/svg">
<path d="M36.8 21.975L26.075 32.725L21.95 28.6C21.7259 28.3383 21.4501 28.1257 21.1399 27.9757C20.8298 27.8256 20.4919 27.7413 20.1476 27.728C19.8033 27.7147 19.46 27.7727 19.1392 27.8984C18.8184 28.0241 18.527 28.2147 18.2834 28.4584C18.0397 28.702 17.8491 28.9934 17.7234 29.3142C17.5977 29.635 17.5397 29.9783 17.553 30.3226C17.5663 30.6669 17.6506 31.0048 17.8007 31.3149C17.9508 31.6251 18.1633 31.9009 18.425 32.125L24.3 38.025C24.5336 38.2567 24.8107 38.44 25.1152 38.5644C25.4198 38.6888 25.746 38.7519 26.075 38.75C26.7309 38.7472 27.3594 38.4869 27.825 38.025L40.325 25.525C40.5593 25.2926 40.7453 25.0161 40.8722 24.7114C40.9992 24.4068 41.0645 24.08 41.0645 23.75C41.0645 23.42 40.9992 23.0932 40.8722 22.7886C40.7453 22.4839 40.5593 22.2074 40.325 21.975C39.8566 21.5094 39.223 21.248 38.5625 21.248C37.902 21.248 37.2684 21.5094 36.8 21.975ZM30 5C25.0555 5 20.222 6.46622 16.1108 9.21326C11.9995 11.9603 8.79521 15.8648 6.90302 20.4329C5.01083 25.0011 4.51575 30.0277 5.48038 34.8773C6.44501 39.7268 8.82603 44.1814 12.3223 47.6777C15.8187 51.174 20.2732 53.555 25.1228 54.5196C29.9723 55.4843 34.9989 54.9892 39.5671 53.097C44.1353 51.2048 48.0397 48.0005 50.7867 43.8893C53.5338 39.778 55 34.9445 55 30C55 26.717 54.3534 23.4661 53.097 20.4329C51.8406 17.3998 49.9991 14.6438 47.6777 12.3223C45.3562 10.0009 42.6002 8.15938 39.5671 6.90301C36.534 5.64664 33.2831 5 30 5V5ZM30 50C26.0444 50 22.1776 48.827 18.8886 46.6294C15.5996 44.4318 13.0362 41.3082 11.5224 37.6537C10.0087 33.9991 9.6126 29.9778 10.3843 26.0982C11.156 22.2186 13.0608 18.6549 15.8579 15.8579C18.6549 13.0608 22.2186 11.156 26.0982 10.3843C29.9778 9.61259 33.9992 10.0087 37.6537 11.5224C41.3082 13.0362 44.4318 15.5996 46.6294 18.8886C48.827 22.1776 50 26.0444 50 30C50 35.3043 47.8929 40.3914 44.1421 44.1421C40.3914 47.8929 35.3043 50 30 50V50Z" fill="#339933"/>
</svg>
